<svg
		class="logo"
		width="130"
		height="158"
		viewBox="0 0 130 158"
		fill="none"
		xmlns="http://www.w3.org/2000/svg"
	>
		<g clip-path="url(#clip0_5_5)">
			<path d="M113.289 38.2863L110.844 36.8934" stroke="#F68F1D" stroke-width="2" />
			<path
				d="M82.8282 42.9529C80.5509 46.0915 78.9658 49.5004 78.073 53.1796"
				stroke="#F68F1D"
				stroke-width="2"
			/>
			<path
				d="M78.0391 28.3223C78.5006 28.057 78.9107 27.6653 79.2693 27.1472"
				stroke="#88B133"
				stroke-width="2"
			/>
			<path
				d="M15.4167 114.634C15.2913 115.132 15.0681 115.558 14.7471 115.91"
				stroke="#82853B"
				stroke-width="2"
			/>
			<path
				d="M83.9041 44.7887C81.8149 46.8336 80.5923 49.3265 80.2361 52.2673C80.0443 53.8254 80.2023 55.7588 81.3384 56.9114C82.457 58.0477 84.0119 58.4394 86.0033 58.0865"
				stroke="#F68F1D"
				stroke-width="2"
			/>
			<path
				d="M111.254 43.6399C112.036 42.8102 112.778 40.5651 110.983 40.4788"
				stroke="#F68F1D"
				stroke-width="2"
			/>
			<path
				d="M86.7407 53.2923C85.8729 53.6877 85.0076 53.6952 84.1449 53.3148C83.9738 53.2403 83.837 53.104 83.7618 52.9329C83.6865 52.7619 83.6782 52.5686 83.7386 52.3912C84.1047 51.3275 84.7242 50.4115 85.597 49.6431C85.7951 49.4704 85.8578 49.2564 85.7851 49.0011"
				stroke="#F68F1D"
				stroke-width="2"
			/>
			<path
				d="M112.928 46.0502C112.376 46.3505 112.069 46.7835 112.006 47.3492"
				stroke="#F68F1D"
				stroke-width="2"
			/>
			<path
				d="M115.324 54.565C114.913 55.4109 114.883 56.307 115.234 57.2531"
				stroke="#82853B"
				stroke-width="2"
			/>
			<path d="M119 102.173L118.293 104.505" stroke="#82853B" stroke-width="2" />
			<path
				d="M116.4 112.194C115.839 112.584 115.032 112.867 113.981 113.042"
				stroke="#82853B"
				stroke-width="2"
			/>
			<path d="M112.525 117.315L110.31 117.63" stroke="#82853B" stroke-width="2" />
			<path
				d="M76.7864 137.52C76.4955 137.698 76.2421 137.96 76.0265 138.305"
				stroke="#82853B"
				stroke-width="2"
			/>
			<path
				d="M61.8173 62.3214C61.875 61.971 61.8575 61.6619 61.7647 61.3941C61.727 61.2789 61.648 61.2251 61.5277 61.2326C60.2686 61.3052 59.4448 60.7371 59.056 59.5282C58.8579 58.9125 59.0309 58.5158 59.5752 58.3381C59.5805 58.336 59.5853 58.3319 59.5884 58.3267C59.5914 58.3214 59.5926 58.3153 59.5916 58.3098C59.5906 58.3044 59.5875 58.2999 59.583 58.2975C59.5785 58.295 59.573 58.2948 59.5677 58.2968L58.8416 58.3944C58.8122 58.4003 58.7815 58.3944 58.7565 58.3779C58.7315 58.3613 58.714 58.3355 58.708 58.3061C58.702 58.2768 58.708 58.2462 58.7246 58.2212C58.7412 58.1962 58.767 58.1788 58.7964 58.1729L59.357 58.0189C59.5501 57.9664 59.5576 57.895 59.3796 57.8049C58.7826 57.5071 58.1719 57.402 57.5475 57.4896"
				stroke="#168C4C"
				stroke-opacity="0.757"
				stroke-width="2"
			/>
			<path
				d="M57.2277 67.9115L58.8642 66.6539C58.9896 66.5587 58.9845 66.4711 58.8491 66.3911C57.7305 65.7228 56.4891 65.6565 55.1247 66.1921"
				stroke="#168C4C"
				stroke-opacity="0.757"
				stroke-width="2"
			/>
			<path
				d="M86.3306 5.72137C87.8868 5.72137 89.1484 4.46241 89.1484 2.90939C89.1484 1.35638 87.8868 0.0974121 86.3306 0.0974121C84.7744 0.0974121 83.5129 1.35638 83.5129 2.90939C83.5129 4.46241 84.7744 5.72137 86.3306 5.72137Z"
				fill="#FCBB15"
			/>
			<path
				d="M126.573 10.5344C128.129 10.5344 129.391 9.27542 129.391 7.72241C129.391 6.1694 128.129 4.91043 126.573 4.91043C125.017 4.91043 123.755 6.1694 123.755 7.72241C123.755 9.27542 125.017 10.5344 126.573 10.5344Z"
				fill="#FCBB15"
			/>
			<path
				d="M107.646 11.5668C108.893 11.5668 109.903 10.5583 109.903 9.31423C109.903 8.07016 108.893 7.06165 107.646 7.06165C106.4 7.06165 105.389 8.07016 105.389 9.31423C105.389 10.5583 106.4 11.5668 107.646 11.5668Z"
				fill="#FCBB15"
			/>
			<path
				d="M113.289 38.2863L110.844 36.8934C111.456 31.9302 112.8 27.1585 114.877 22.5782C114.972 22.3705 114.927 22.3329 114.741 22.4656C111.122 25.0673 106.156 27.0121 101.68 26.2237C97.4812 25.4878 93.7305 22.4693 91.161 19.2557C91.1305 19.2184 91.0898 19.1906 91.0439 19.1757C90.9979 19.1608 90.9488 19.1595 90.9025 19.1718C90.8561 19.1842 90.8146 19.2097 90.783 19.2453C90.7514 19.2808 90.7312 19.3249 90.7246 19.372C89.344 28.5476 83.5241 34.4907 74.8903 37.4641C74.6872 37.5342 74.6884 37.603 74.8941 37.6706C78.0241 38.7068 80.5522 40.0583 82.8282 42.9529C80.5509 46.0915 78.9658 49.5004 78.073 53.1796C77.1952 50.6017 75.6477 48.5893 73.4307 47.1427C67.6823 43.3921 60.8355 42.1907 54.3084 40.5464C53.245 40.276 52.48 39.9494 52.0135 39.5665C49.666 37.6368 50.5915 34.0965 53.4055 33.2179C53.8369 33.0853 54.5491 33.0215 55.5423 33.0265C59.8837 33.0465 64.072 32.7424 68.1074 32.1142C71.5986 31.5711 74.9091 30.3071 78.0391 28.3223C78.5006 28.057 78.9107 27.6653 79.2693 27.1472C82.9486 24.1363 84.8609 20.0578 85.0064 14.9119C85.059 13.0097 85.3249 11.478 85.8039 10.3166C87.1808 6.98656 90.5177 8.5371 92.0188 10.7409C92.9568 12.1175 93.9111 13.4828 94.8817 14.8368C96.2234 16.7115 97.2856 17.9867 98.0681 18.6625C103.128 23.0325 109.843 20.6185 114.557 16.8642C116.427 15.3737 120.73 11.8859 122.811 12.4115C125.877 13.1887 122.781 17.3109 121.761 18.5911C117.159 24.3678 114.335 30.9328 113.289 38.2863Z"
				fill="#FCBB15"
			/>
			<path
				d="M71.7528 23.8247C73.0472 23.8247 74.0965 22.7775 74.0965 21.4857C74.0965 20.194 73.0472 19.1468 71.7528 19.1468C70.4584 19.1468 69.4091 20.194 69.4091 21.4857C69.4091 22.7775 70.4584 23.8247 71.7528 23.8247Z"
				fill="#FCBB15"
			/>
			<path
				d="M13.0466 118.309C12.8861 118.93 12.6842 119.453 12.4409 119.879C12.2177 120.264 11.9832 120.272 11.7374 119.901C4.73509 109.377 1.06462 97.906 0.726042 85.4892C0.210647 66.7102 8.55855 48.1563 22.8015 35.9999C31.4792 28.5914 41.5351 23.8322 52.9691 21.7222C56.854 21.0064 61.1138 20.676 65.7486 20.7311C66.8672 20.7436 67.7964 20.84 68.5363 21.0202C68.5937 21.0332 68.6453 21.0648 68.6833 21.1102C68.7214 21.1556 68.7437 21.2123 68.747 21.2717C68.7846 21.9951 69.004 22.6583 69.4053 23.2615C69.5407 23.4667 69.4856 23.5619 69.2398 23.5468C55.6138 22.7184 43.2368 25.7506 32.1087 32.6435C4.14571 49.9659 -4.45801 86.2025 11.7111 114.559C11.997 115.066 12.851 116.147 13.073 116.954C13.1833 117.36 13.1745 117.811 13.0466 118.309Z"
				fill="#DBE9B6"
			/>
			<path
				d="M81.4588 23.3066C81.282 24.2714 80.5446 25.4953 79.3859 25.2513C77.4823 24.8508 75.5875 24.3953 73.7015 23.8847C73.6137 23.8622 73.5924 23.8109 73.6376 23.7308L74.7436 21.7898C74.8113 21.6672 74.9154 21.6109 75.0559 21.6209C77.2102 21.776 79.2944 22.2453 81.3083 23.0287C81.3614 23.0502 81.4053 23.0895 81.4327 23.1401C81.4602 23.1908 81.4694 23.2496 81.4588 23.3066Z"
				fill="#DBE9B6"
			/>
			<path
				d="M79.2693 27.1472C78.9107 27.6653 78.5006 28.057 78.0391 28.3223C77.0134 27.9669 75.7819 27.6728 74.3448 27.4401C64.7668 25.8808 55.5047 26.5203 46.5586 29.3585C24.4117 36.3828 8.58112 56.6674 6.85812 79.7376C5.92765 92.1544 8.7805 103.787 15.4167 114.634C15.2913 115.132 15.0681 115.558 14.7471 115.91C7.80238 105.443 4.4241 92.0405 5.5527 79.5837C7.01487 63.4076 13.8153 50.0423 25.9541 39.4876C27.8526 37.8383 29.8528 36.3328 31.9545 34.9712C46.2276 25.7331 61.9992 23.1251 79.2693 27.1472Z"
				fill="#13A751"
			/>
			<path
				d="M44.655 36.9835C46.2112 36.9835 47.4728 35.7246 47.4728 34.1716C47.4728 32.6185 46.2112 31.3596 44.655 31.3596C43.0988 31.3596 41.8373 32.6185 41.8373 34.1716C41.8373 35.7246 43.0988 36.9835 44.655 36.9835Z"
				fill="#FCBB15"
			/>
			<path
				d="M83.9041 44.7887C81.8149 46.8336 80.5923 49.3264 80.2361 52.2673C80.0443 53.8254 80.2023 55.7588 81.3384 56.9114C82.457 58.0477 84.0119 58.4394 86.0033 58.0865C88.6016 57.8062 91.3604 56.999 94.2797 55.665C99.0073 53.5025 103.139 50.9959 106.676 48.1451C108.697 46.5157 110.223 45.014 111.254 43.6399C112.036 42.8102 112.778 40.5651 110.983 40.4788C110.241 40.231 109.646 40.1184 109.2 40.1409C101.861 40.5213 95.6792 43.3346 90.6532 48.5806C89.7528 49.5217 88.4486 51.0922 86.7407 53.2923C85.8729 53.6877 85.0076 53.6952 84.1449 53.3148C83.9738 53.2403 83.837 53.104 83.7618 52.9329C83.6865 52.7619 83.6782 52.5685 83.7386 52.3912C84.1047 51.3275 84.7242 50.4114 85.597 49.6431C85.7951 49.4704 85.8578 49.2564 85.7851 49.0011C85.9506 49.0862 86.0021 49.0924 85.9394 49.0198C90.6143 44.6874 96.0454 41.1971 102.233 38.5491C105.187 37.2851 108.057 36.7332 110.844 36.8934L113.289 38.2863C113.759 39.375 114.305 40.46 114.279 41.6501C114.237 43.4184 113.24 44.7024 112.928 46.0502C112.376 46.3505 112.069 46.7835 112.006 47.3492C111.891 47.209 111.778 47.1953 111.668 47.3079C108.741 50.3138 105.519 52.7291 102.003 54.5537C97.8072 56.7337 93.906 58.2292 90.2995 59.0401C86.3306 59.9336 77.8322 61.1951 78.0993 54.6401C78.1219 54.1119 78.1131 53.6251 78.073 53.1796C78.9658 49.5004 80.5509 46.0915 82.8282 42.9529C88.7997 36.4079 96.3501 32.9727 105.479 32.6473C106.506 32.6097 107.394 32.7637 108.342 33.0452C108.445 33.0763 108.54 33.129 108.621 33.1997C108.701 33.2704 108.766 33.3576 108.81 33.4552C108.854 33.5528 108.876 33.6585 108.875 33.7653C108.874 33.8721 108.85 33.9773 108.805 34.0739C108.5 34.7309 107.699 35.005 106.935 35.1214C101.897 35.8948 97.0323 37.2801 92.3423 39.2774C89.1922 40.6164 86.3795 42.4536 83.9041 44.7887Z"
				fill="#F06224"
			/>
			<path
				d="M110.983 40.4788C112.778 40.5651 112.036 42.8102 111.254 43.6399L110.983 40.4788Z"
				fill="#FCBB15"
			/>
			<path
				d="M115.324 54.565C114.913 55.4109 114.883 56.307 115.234 57.2531C115.131 57.3632 115.067 57.5459 115.042 57.8012C114.169 67.4122 113.939 76.6566 114.35 85.5343C114.546 89.7692 115.324 94.8713 117.266 98.802C117.817 99.9158 118.395 101.04 119 102.173L118.293 104.505C113.974 104.644 112.435 89.649 112.255 86.7469C111.45 73.7195 112.337 60.8046 113.79 47.8523C113.948 46.4219 114.297 45.472 114.971 44.2706C115.02 44.1851 115.096 44.1182 115.188 44.0808C115.28 44.0435 115.381 44.0378 115.476 44.0647C115.571 44.0916 115.653 44.1495 115.71 44.2291C115.768 44.3087 115.796 44.4054 115.791 44.5034L115.324 54.565Z"
				fill="#F06224"
			/>
			<path
				d="M83.9041 44.7887L85.7851 49.0011C85.8578 49.2564 85.7951 49.4704 85.597 49.6431C84.7242 50.4115 84.1047 51.3275 83.7386 52.3912C83.6782 52.5686 83.6865 52.7619 83.7618 52.9329C83.837 53.104 83.9737 53.2403 84.1449 53.3148C85.0076 53.6952 85.8729 53.6877 86.7407 53.2923C87.1269 55.0393 86.8811 56.6373 86.0033 58.0865C84.0119 58.4394 82.457 58.0477 81.3384 56.9114C80.2023 55.7588 80.0443 53.8254 80.2361 52.2673C80.5923 49.3265 81.8149 46.8336 83.9041 44.7887Z"
				fill="#FCBB15"
			/>
			<path
				d="M112.928 46.0502L112.89 49.4366C112.885 49.7444 112.833 49.7519 112.732 49.4591L112.006 47.3492C112.069 46.7835 112.376 46.3505 112.928 46.0502Z"
				fill="#FCBB15"
			/>
			<path
				d="M118.281 111.409C119.869 108.325 121.246 105.301 122.412 102.335C123.433 99.7419 124.174 96.3792 124.635 92.247C126.091 79.1895 124.18 66.4061 117.585 54.7302C117.101 53.8742 116.807 53.092 116.701 52.3837C116.526 51.2124 116.543 50.1161 116.754 49.0949C116.864 48.5643 117.069 48.5255 117.367 48.9786C129.146 66.8078 131.208 88.6616 123.176 108.477C122.769 109.478 122.318 110.293 121.821 110.921C121.746 111.016 121.648 111.072 121.528 111.09L118.357 111.514C118.344 111.516 118.331 111.515 118.319 111.51C118.307 111.505 118.296 111.497 118.288 111.486C118.281 111.475 118.276 111.462 118.275 111.449C118.273 111.435 118.276 111.421 118.281 111.409Z"
				fill="#DBE9B6"
			/>
			<path
				d="M37.0332 71.7447C37.0062 71.7795 36.9874 71.82 36.978 71.8629C36.9687 71.9059 36.969 71.9503 36.9792 71.9929C36.9893 72.0355 37.0089 72.0751 37.0365 72.1089C37.0641 72.1426 37.099 72.1695 37.1385 72.1877C39.8171 73.4529 41.4611 75.6041 42.2436 78.5212C43.4424 83.0064 42.5458 87.0635 39.5538 90.6927C35.1597 96.0276 26.7893 96.4856 23.0724 90.092C22.1996 88.5903 22.2372 87.0172 22.3012 85.3015C22.335 84.4643 21.8761 84.0588 21.1011 83.7435C17.3065 82.2017 14.8649 79.5474 13.7765 75.7806C11.0941 66.4999 14.8637 56.2957 24.0204 52.3649C27.9517 50.6755 32.8235 50.0222 37.0031 51.1823C48.3381 54.3322 47.2132 67.6638 37.3191 71.5044C37.2313 71.537 37.1586 71.5895 37.1009 71.6621L37.0332 71.7447ZM28.7982 61.1575C29.2045 59.637 31.0328 59.9149 30.6378 61.3678C28.7367 68.3483 26.8344 75.2875 24.9308 82.1854C24.9105 82.2593 24.908 82.337 24.9236 82.412C24.9392 82.4871 24.9724 82.5574 25.0205 82.6171C25.0686 82.6768 25.1302 82.7243 25.2003 82.7557C25.2704 82.787 25.3469 82.8013 25.4236 82.7974C28.1323 82.6522 30.4597 81.6561 32.4059 79.809C32.4913 79.7273 32.593 79.6647 32.7046 79.6254C32.8161 79.5861 32.9348 79.5709 33.0529 79.5808C33.1709 79.5908 33.2857 79.6256 33.3894 79.6831C33.4932 79.7405 33.5837 79.8192 33.6549 79.9141C33.991 80.3621 33.9245 80.8039 33.4555 81.2394C30.955 83.562 27.9743 84.6933 24.5132 84.6333C24.4029 84.6333 24.3364 84.6871 24.3138 84.7947C23.6618 88.1485 24.7126 90.5651 27.4664 92.0443C28.8458 92.7851 30.3481 93.0742 31.9733 92.9115C41.4272 91.9617 44.8732 76.0734 34.5954 73.1563C33.3916 72.8134 32.1815 72.642 30.9651 72.642C30.8503 72.6415 30.7368 72.6183 30.631 72.5738C30.5253 72.5293 30.4294 72.4643 30.349 72.3827C30.2686 72.301 30.2051 72.2042 30.1623 72.0979C30.1196 71.9917 30.0983 71.878 30.0998 71.7635C30.1073 71.1703 30.6604 70.8812 31.2284 70.8587C36.1416 70.6635 40.0466 68.9703 42.4129 64.5552C43.1578 63.1636 43.4249 61.6481 43.2142 60.0087C42.3715 53.4762 35.0882 51.7004 29.6484 52.609C23.6944 53.6051 19.4107 56.5898 16.7973 61.563C14.2843 66.346 13.8705 73.513 16.8989 78.082C18.188 80.0267 20.0063 81.4196 22.3538 82.2605C22.4309 82.2879 22.5127 82.2991 22.5942 82.2937C22.6756 82.2882 22.7551 82.2661 22.8274 82.2288C22.8998 82.1914 22.9636 82.1396 23.0148 82.0766C23.066 82.0136 23.1035 81.9407 23.1251 81.8626C25.0512 74.9546 26.9422 68.053 28.7982 61.1575Z"
				fill="#13A751"
			/>
			<path
				d="M115.324 54.565C116.305 56.1468 116.922 57.203 117.175 57.7336C124.534 73.1013 125.343 88.8393 119.602 104.948C119.557 105.075 119.583 105.186 119.681 105.278C119.774 105.368 119.833 105.471 119.858 105.586C119.878 105.691 119.854 105.813 119.786 105.95C118.74 108.063 117.612 110.144 116.4 112.194C115.839 112.584 115.032 112.867 113.981 113.042C115.882 110.154 117.32 107.308 118.293 104.505L119 102.173C123.795 86.5755 122.54 71.602 115.234 57.2531C114.883 56.307 114.913 55.4109 115.324 54.565Z"
				fill="#13A751"
			/>
			<path
				d="M61.5465 57.3281C63.1466 58.4194 63.7698 59.9311 63.4162 61.8633C63.2381 62.847 62.8832 63.5666 62.3515 64.0221C59.5413 66.4323 55.2526 60.9097 55.0269 58.4507C54.8539 56.596 55.9637 55.436 57.9462 55.7663C59.1802 55.9728 60.5383 56.6411 61.5465 57.3281ZM61.8173 62.3214C61.875 61.971 61.8575 61.6619 61.7647 61.3941C61.7271 61.2789 61.6481 61.2251 61.5277 61.2326C60.2686 61.3052 59.4448 60.7371 59.056 59.5282C58.8579 58.9125 59.0309 58.5157 59.5752 58.338C59.5805 58.336 59.5853 58.3319 59.5884 58.3266C59.5914 58.3213 59.5926 58.3153 59.5916 58.3098C59.5906 58.3043 59.5875 58.2999 59.583 58.2974C59.5785 58.295 59.573 58.2947 59.5677 58.2967L58.8416 58.3944C58.8122 58.4003 58.7815 58.3944 58.7565 58.3778C58.7315 58.3613 58.714 58.3355 58.708 58.3061C58.7021 58.2768 58.708 58.2462 58.7246 58.2212C58.7412 58.1962 58.767 58.1788 58.7964 58.1729L59.357 58.0189C59.5501 57.9664 59.5576 57.895 59.3796 57.8049C58.7827 57.5071 58.172 57.402 57.5475 57.4896C57.3117 57.427 57.1161 57.4383 56.9606 57.5234C56.8277 57.5959 56.7449 57.7461 56.7123 57.9739C56.5242 59.2579 56.6784 60.264 57.175 60.9923C58.4942 62.9321 60.0417 63.3751 61.8173 62.3214Z"
				fill="#13A751"
			/>
			<path
				d="M61.8173 62.3214C60.31 62.6242 59.1375 62.2826 58.2999 61.2965C57.397 60.2352 57.1462 58.9663 57.5475 57.4896C58.172 57.402 58.7826 57.5071 59.3796 57.8049C59.5576 57.895 59.5501 57.9664 59.357 58.0189L58.7964 58.1729C58.767 58.1788 58.7412 58.1962 58.7246 58.2212C58.708 58.2462 58.702 58.2768 58.708 58.3061C58.714 58.3355 58.7315 58.3613 58.7565 58.3779C58.7815 58.3944 58.8122 58.4003 58.8416 58.3944L59.5677 58.2968C59.573 58.2948 59.5785 58.295 59.583 58.2975C59.5875 58.2999 59.5906 58.3044 59.5916 58.3098C59.5926 58.3153 59.5914 58.3214 59.5884 58.3267C59.5853 58.3319 59.5805 58.336 59.5752 58.3381C59.0309 58.5158 58.8579 58.9125 59.056 59.5282C59.4448 60.7371 60.2686 61.3052 61.5277 61.2326C61.6481 61.2251 61.727 61.2789 61.7647 61.3941C61.8575 61.6619 61.875 61.971 61.8173 62.3214Z"
				fill="#1B5642"
				fill-opacity="0.51"
			/>
			<path
				d="M95.4459 96.9436C93.6214 89.3712 91.2701 82.437 88.3734 75.2475C87.3388 72.6795 86.1989 69.4959 84.7844 67.5511C83.5016 65.7791 82.087 63.977 81.5604 62.3326C81.524 62.2166 81.5307 62.0913 81.5792 61.9797C81.9002 61.2564 82.4871 61.0587 83.3398 61.3866C83.711 61.5292 84.254 62.1612 84.9687 63.2825C87.6398 67.4648 89.1822 71.1778 91.2438 76.4226C94.2409 84.0588 96.7627 91.8528 98.8092 99.8044C99.2431 101.491 99.5704 103.198 99.7911 104.925C99.8763 105.589 99.7798 106.123 99.5014 106.528C99.0675 107.167 98.4405 107.592 97.6204 107.805C97.5622 107.821 97.5006 107.821 97.4418 107.805C97.3831 107.789 97.3292 107.758 97.2856 107.715C96.9294 107.354 96.7426 106.908 96.725 106.374C96.6172 103.188 96.1908 100.045 95.4459 96.9436Z"
				fill="#F06224"
			/>
			<path
				d="M52.5026 67.4272C53.0594 66.1545 54.045 65.0658 55.5536 65.0357C57.5964 64.9944 58.9281 64.9081 60.4705 66.3835C60.5658 66.4761 60.5709 66.5738 60.4856 66.6764C58.7588 68.7112 54.7071 70.502 52.5778 67.9679C52.4399 67.8027 52.4148 67.6225 52.5026 67.4272ZM55.1247 66.1921C54.4751 66.2822 54.0049 66.5875 53.714 67.1081C53.6463 67.2258 53.6626 67.3321 53.7629 67.4272C54.6683 68.3057 55.8232 68.4672 57.2277 67.9115L58.8642 66.6538C58.9896 66.5587 58.9845 66.4711 58.8491 66.391C57.7305 65.7228 56.4891 65.6565 55.1247 66.1921Z"
				fill="#13A751"
			/>
			<path
				d="M104.761 70.1716C105.852 67.5887 107.834 65.2197 110.991 65.8842C111.129 65.9143 111.194 65.9994 111.186 66.1395C110.725 73.3503 110.755 80.456 111.276 87.4565C111.645 92.3897 112.546 97.0262 113.978 101.366C114.008 101.456 113.975 101.504 113.88 101.509C109.358 101.717 105.109 102.875 101.134 104.985C101.034 105.038 100.972 105.009 100.95 104.899C99.4324 97.3929 97.3433 90.0495 94.6823 82.8687C94.6685 82.8307 94.6644 82.7899 94.6703 82.7499C94.6763 82.7099 94.6921 82.672 94.7163 82.6396C94.7406 82.6073 94.7725 82.5814 94.8092 82.5644C94.846 82.5473 94.8864 82.5397 94.9268 82.5421C98.9032 82.8011 100.882 79.5199 102.229 76.2499C103.062 74.22 103.905 72.194 104.761 70.1716Z"
				fill="#FCBB15"
			/>
			<path
				d="M57.2277 67.9115L54.8539 67.1194C54.6833 67.0643 54.6457 66.9605 54.741 66.8078L55.1247 66.1921C56.4891 65.6565 57.7305 65.7228 58.8491 66.3911C58.9845 66.4711 58.9896 66.5587 58.8642 66.6539L57.2277 67.9115Z"
				fill="#1B5642"
				fill-opacity="0.51"
			/>
			<path
				d="M60.9822 79.0168C61.2154 79.0268 61.4913 78.9743 61.8098 78.8591C63.2281 78.3448 64.8458 79.2421 65.5304 80.3496C65.9919 81.0954 66.1938 82.0903 66.1361 83.3343C65.9882 86.4403 64.5398 88.733 61.791 90.2122C59.8022 91.2784 58.098 90.8967 56.6784 89.0671C56.5606 88.9169 56.4665 88.9307 56.3963 89.1084L55.9787 90.1784C55.9253 90.3172 55.8253 90.4486 55.6968 90.549C55.5683 90.6493 55.4198 90.712 55.2781 90.7256C55.1364 90.7392 55.0108 90.7028 54.924 90.6231C54.8373 90.5435 54.795 90.4257 54.8049 90.291C54.8401 89.7929 54.968 89.3474 55.1887 88.9545C55.2207 88.8977 55.234 88.8324 55.2269 88.7676C55.2198 88.7029 55.1925 88.642 55.1489 88.5936C55.1053 88.5451 55.0476 88.5115 54.9839 88.4974C54.9202 88.4834 54.8537 88.4896 54.7937 88.5152C53.8682 88.9182 52.9139 88.9883 51.9308 88.7255C51.7928 88.6879 51.6787 88.7255 51.5884 88.8381C49.2334 91.8153 45.0538 91.1808 44.2262 87.2688C43.549 84.0589 45.5579 80.496 48.1688 78.724C48.6754 78.3811 49.1519 78.2259 49.5983 78.2584C49.714 78.2664 49.8238 78.3118 49.9111 78.3878C49.9983 78.4638 50.0584 78.5663 50.0821 78.6798C50.1059 78.7934 50.0921 78.9118 50.0429 79.0172C49.9936 79.1227 49.9115 79.2095 49.809 79.2646C46.6288 80.949 45.1755 83.5871 45.4488 87.1787C45.4864 87.6592 45.7059 88.1198 46.1072 88.5603C47.3035 89.8818 48.8723 89.7391 50.204 88.5753C50.4122 88.3901 50.4372 88.1836 50.2792 87.9558C48.6515 85.5931 48.4873 83.1541 49.7864 80.6387C50.9075 78.4799 54.0112 77.9131 54.2143 81.0479C54.3623 83.293 53.8318 85.3316 52.623 87.1637C52.5769 87.2335 52.5523 87.3153 52.5522 87.3989C52.5521 87.4825 52.5766 87.5644 52.6227 87.6342C52.6687 87.7041 52.7342 87.759 52.8112 87.7922C52.8881 87.8253 52.9731 87.8352 53.0556 87.8207C55.7831 87.3626 55.9712 85.8346 56.701 83.1766C57.6917 79.5674 58.7112 75.9633 59.7595 72.3642C60.2222 70.7874 61.87 66.9993 63.6795 68.0092C66.0571 69.3344 61.712 76.8468 60.7376 78.5776C60.5796 78.8579 60.6611 79.0043 60.9822 79.0168ZM63.4726 69.4621L62.4644 69.0641C62.454 69.0599 62.443 69.0579 62.4318 69.0581C62.4206 69.0583 62.4096 69.0607 62.3994 69.0653C62.3892 69.0699 62.3801 69.0764 62.3725 69.0846C62.3649 69.0928 62.3591 69.1024 62.3553 69.1129L62.1296 69.6836C61.669 70.8445 61.228 71.9999 60.8317 73.0839C60.4355 74.1679 60.0917 75.1591 59.8203 76.0009C59.5488 76.8426 59.3548 77.5184 59.2495 77.9895C59.1442 78.4606 59.1296 78.7179 59.2065 78.7465C59.2828 78.7766 59.449 78.5779 59.6956 78.1617C59.9422 77.7455 60.2644 77.1201 60.6438 76.321C61.0232 75.5219 61.4523 74.5649 61.9067 73.5046C62.3611 72.4444 62.8319 71.3016 63.292 70.1416L63.5178 69.571C63.5221 69.5609 63.5243 69.55 63.5244 69.5391C63.5244 69.5281 63.5223 69.5172 63.5181 69.5071C63.5139 69.4969 63.5077 69.4878 63.4999 69.48C63.4921 69.4723 63.4828 69.4662 63.4726 69.4621ZM58.5604 89.2597C58.9404 89.4725 59.3828 89.5656 59.8624 89.5337C60.3419 89.5018 60.8493 89.3454 61.3555 89.0736C61.8616 88.8018 62.3567 88.4199 62.8123 87.9496C63.268 87.4793 63.6754 86.9298 64.0112 86.3326C64.347 85.7354 64.6047 85.1021 64.7696 84.469C64.9344 83.8358 65.0032 83.2151 64.9719 82.6423C64.9407 82.0696 64.8101 81.556 64.5875 81.1308C64.365 80.7057 64.0548 80.3773 63.6748 80.1645C63.2948 79.9517 62.8524 79.8586 62.3728 79.8905C61.8933 79.9225 61.3859 80.0788 60.8797 80.3506C60.3736 80.6224 59.8785 81.0043 59.4229 81.4746C58.9672 81.945 58.5598 82.4944 58.224 83.0916C57.8882 83.6888 57.6305 84.3221 57.4656 84.9552C57.3008 85.5884 57.232 86.2091 57.2633 86.7819C57.2945 87.3547 57.4251 87.8683 57.6477 88.2934C57.8702 88.7186 58.1804 89.0469 58.5604 89.2597ZM51.4116 86.8108C52.6456 85.1326 53.1798 82.681 52.9089 80.6537C52.8939 80.5426 52.8518 80.4368 52.7864 80.3457C52.721 80.2545 52.6343 80.1809 52.5339 80.1312C52.4336 80.0814 52.3226 80.0572 52.2108 80.0606C52.0991 80.064 51.99 80.0949 51.8931 80.1506C49.7827 81.3633 49.9557 84.8285 50.8624 86.7582C50.8858 86.8087 50.9221 86.8522 50.9677 86.8843C51.0132 86.9165 51.0664 86.9362 51.1219 86.9415C51.1774 86.9468 51.2334 86.9376 51.2842 86.9146C51.335 86.8917 51.3789 86.8559 51.4116 86.8108Z"
				fill="#13A751"
			/>
			<path
				d="M74.8113 88.3688C73.5699 89.7804 71.8431 90.9142 69.9019 90.6289C68.4372 90.4136 67.4867 89.6315 67.0503 88.2824C65.9255 84.8022 68.1751 80.8564 71.2675 79.2646C73.1749 78.2847 75.1123 78.5926 76.286 80.3984C76.3588 80.5135 76.4453 80.5248 76.5456 80.4322L76.8165 80.1731C76.9101 80.0847 77.0303 80.0294 77.1585 80.016C77.2868 80.0025 77.4159 80.0316 77.5259 80.0986C77.6359 80.1657 77.7208 80.2671 77.7673 80.3871C77.8138 80.5071 77.8194 80.639 77.7833 80.7626C77.2943 82.467 76.8391 84.2315 76.4177 86.0561C76.1807 87.0961 76.1957 90.2535 78.0354 89.4651C79.8186 88.7029 80.6989 86.4053 81.2256 84.6821C81.2958 84.4593 81.3936 84.3104 81.519 84.2353C81.7347 84.1077 81.9604 84.1314 82.1961 84.3066C82.2675 84.3592 82.3219 84.4316 82.3526 84.5149C82.3834 84.5983 82.3891 84.689 82.3692 84.7759C81.8952 86.837 80.5296 89.9719 78.3363 90.6251C77.3005 90.933 76.4102 90.6164 75.6653 89.6753C75.417 89.3674 75.3342 88.778 75.101 88.3951C75.0182 88.2549 74.9217 88.2462 74.8113 88.3688ZM69.2929 89.2525C70.0665 89.6875 71.0784 89.6267 72.1058 89.0836C73.1332 88.5404 74.092 87.5593 74.7714 86.3561C75.4507 85.1529 75.7949 83.8262 75.7282 82.6678C75.6616 81.5094 75.1895 80.6143 74.4159 80.1793C73.6422 79.7442 72.6304 79.805 71.603 80.3482C70.5756 80.8913 69.6167 81.8724 68.9374 83.0756C68.2581 84.2788 67.9139 85.6055 67.9805 86.7639C68.0472 87.9223 68.5193 88.8174 69.2929 89.2525Z"
				fill="#13A751"
			/>
			<path
				d="M113.981 113.042C115.032 112.867 115.839 112.584 116.4 112.194C119.009 111.618 121.68 111.303 124.413 111.248C124.581 111.245 124.744 111.301 124.874 111.407C125.004 111.513 125.093 111.661 125.124 111.826C125.368 113.137 125.04 114.14 124.143 114.833C123.741 115.143 123.093 115.345 122.198 115.437C120.798 115.585 119.426 115.84 118.082 116.203C117.066 116.476 116.143 116.676 115.313 116.804C114.345 116.949 113.416 117.119 112.525 117.315L110.31 117.63C101.539 118.941 93.1549 120.904 85.1569 123.517C85.0277 123.56 84.9109 123.632 84.816 123.729C84.7211 123.826 84.6509 123.943 84.6114 124.072C83.0715 129.148 80.4631 133.631 76.7864 137.52C76.4954 137.698 76.2421 137.959 76.0265 138.305C74.3561 139.315 72.6406 140.505 70.9854 141.297C66.3543 143.52 57.8033 145.896 52.9653 143.313C52.1791 142.893 51.5508 141.819 51.3176 140.914C50.2078 136.574 54.4927 133.274 57.7581 131.337C64.7517 127.185 72.1591 124.748 79.8675 122.293C81.2669 121.846 81.9215 120.449 82.2112 119.135C82.2714 118.87 82.2112 118.839 82.0306 119.042C80.8042 120.431 79.2279 121.64 77.3808 121.793C72.3623 122.214 72.8664 115.426 73.5962 112.22C75.0734 105.69 77.6328 99.6017 81.2745 93.9552C81.6306 93.4021 82.1936 92.7251 82.9636 91.9241C84.6151 90.2084 87.8204 91.3197 85.898 94.1654C81.978 99.9809 79.7396 106.198 77.8736 112.911C77.441 114.461 77.0648 117.044 77.8021 118.674C77.8273 118.732 77.87 118.781 77.9245 118.815C77.9789 118.848 78.0426 118.865 78.1068 118.861C79.5515 118.794 81.7673 115.407 82.4068 114.296C83.0815 113.115 83.5868 111.621 83.9229 109.813C84.7317 105.466 84.8634 101.055 85.3863 96.6658C85.4691 95.9875 85.6284 95.3255 85.8641 94.6798C86.4585 93.0767 89.8556 91.8115 89.882 94.8675C89.9572 103.422 88.6906 111.743 86.0823 119.83C86.0697 119.869 86.068 119.911 86.0773 119.95C86.0867 119.99 86.1068 120.027 86.1354 120.056C86.164 120.086 86.2001 120.107 86.2398 120.117C86.2795 120.127 86.3213 120.127 86.3607 120.115C95.6127 117.415 104.82 115.057 113.981 113.042ZM60.6323 140.471C70.4624 139.067 76.1506 134.772 79.6229 125.548C79.6349 125.516 79.6376 125.481 79.6308 125.447C79.6241 125.414 79.6081 125.383 79.5846 125.358C79.5612 125.333 79.5312 125.315 79.4981 125.306C79.465 125.297 79.4301 125.298 79.3972 125.307C73.373 127.019 67.651 129.291 62.2312 132.122C60.6035 132.97 59.0811 133.975 57.6641 135.136C56.3624 136.206 53.8381 138.917 56.4941 140.062C57.6553 140.562 59.0347 140.699 60.6323 140.471Z"
				fill="#F06224"
			/>
			<path
				d="M14.7471 115.91C15.0681 115.558 15.2913 115.132 15.4167 114.634C18.0576 108.379 22.241 102.012 28.3693 98.9972C31.0742 97.6682 34.0876 97.1313 35.2688 100.597C36.1303 103.127 35.5096 106.573 35.0582 109.292C34.86 110.49 34.5202 111.95 34.0387 113.669C32.4762 119.253 30.9939 124.922 29.592 130.676C29.4766 131.149 29.6522 131.314 30.1186 131.172C36.2432 129.31 38.854 120.325 40.2121 114.949C41.11 111.408 42.7327 105.312 45.0802 96.6621C45.4375 95.3481 45.7912 94.5521 47.2095 94.1542C48.8547 93.6936 50.5225 93.6211 52.2129 93.9364C52.3509 93.9615 52.3985 94.0416 52.3559 94.1767C50.4573 100.226 48.7017 106.311 47.0891 112.43C44.7002 121.486 41.5063 132.302 31.6498 135.752C31.5872 135.774 31.5309 135.811 31.4855 135.859C31.4401 135.907 31.4069 135.965 31.3889 136.029C31.3708 136.093 31.3683 136.16 31.3817 136.225C31.395 136.289 31.4237 136.35 31.4654 136.401C33.3314 138.707 35.5209 140.557 38.2032 142.04C43.5352 144.994 49.3024 146.632 55.5047 146.955C60.8881 147.233 66.9111 146.279 71.4594 143.216C71.5248 143.171 71.6015 143.147 71.6804 143.145C71.7593 143.143 71.8372 143.163 71.9048 143.204C71.9724 143.244 72.027 143.304 72.0621 143.374C72.0971 143.445 72.1112 143.524 72.1027 143.602C71.5196 148.749 61.5502 150.814 57.57 151.096C54.0375 151.344 50.5614 151.257 47.0778 150.566C39.9776 149.155 33.5759 146.245 27.8727 141.838C27.6972 141.703 27.5956 141.744 27.568 141.962C26.9987 146.236 26.2676 150.443 25.3747 154.58C25.0098 156.277 24.4756 157.884 22.3877 157.148C21.4359 156.814 21.1688 156.063 21.3193 155.128C22.7301 146.241 24.5396 137.415 26.1422 128.562C27.2257 122.588 28.116 116.585 28.8132 110.553C28.9712 109.191 28.8345 107.885 28.4032 106.634C28.3733 106.545 28.3262 106.464 28.2644 106.394C28.2027 106.325 28.1275 106.268 28.0433 106.227C27.959 106.186 27.8674 106.162 27.7735 106.157C27.6797 106.151 27.5856 106.164 27.4965 106.194C25.7735 106.791 23.8775 110.084 23.0461 111.642C20.1042 117.171 17.8846 122.96 16.3873 129.009C15.6499 132.005 13.2611 141.902 16.3083 143.347C16.8751 143.615 17.4582 143.58 18.0576 143.242C19.8596 142.221 20.533 139.394 20.6233 137.449C20.6459 136.963 20.7274 136.627 20.8679 136.439C21.2478 135.936 21.8911 135.925 22.3162 136.413C22.9608 137.156 23.2354 138.107 23.1401 139.266C22.8053 143.298 20.9205 147.424 16.6845 148.235C6.21482 150.244 11.4741 126.31 12.8021 122.281C13.5094 120.124 14.1577 118 14.7471 115.91Z"
				fill="#F06224"
			/>
			<path
				d="M52.9835 98.7849C51.8889 101.922 52.1117 104.851 53.4813 105.327C54.8509 105.803 56.8485 103.645 57.9431 100.509C59.0378 97.3716 58.8149 94.4428 57.4453 93.9669C56.0757 93.4909 54.0781 95.648 52.9835 98.7849Z"
				fill="#F06224"
			/>
			<path
				d="M65.9255 104.85C67.2384 103.003 68.3821 100.311 70.3533 99.3614C71.7265 98.7007 73.5849 98.5242 74.0138 100.356C74.2696 101.449 73.7091 103.777 73.2689 105.248C71.9246 109.736 71.0531 114.317 70.6543 118.993C70.5515 120.194 70.6831 121.355 71.0493 122.477C71.0869 122.589 71.0819 122.699 71.0343 122.807C70.5038 124.027 68.4197 126.513 67.0014 125.45C64.1272 123.295 66.9638 111.48 67.7839 108.916C68.5263 106.603 68.3081 106.51 67.1293 108.635C66.086 110.519 64.9511 112.64 63.7247 114.998C63.3284 115.762 63.0601 116.658 62.9196 117.686C62.4983 120.785 62.329 123.897 62.4117 127.023C62.4129 127.083 62.3989 127.142 62.3713 127.195C62.3436 127.247 62.3032 127.292 62.2537 127.324C61.0298 128.134 59.7946 128.653 58.5482 128.878C57.2841 129.103 57.5362 126.61 57.4572 125.792C57.4396 125.607 57.3732 125.588 57.2578 125.735C55.3993 128.143 53.3365 130.144 51.0693 131.739C48.8685 133.289 46.9724 131.739 46.5737 129.415C46.4633 128.779 46.4909 127.561 46.6564 125.762C47.0703 121.269 48.0321 116.666 49.5419 111.953C49.9858 110.564 50.4661 109.33 50.9828 108.252C51.9157 106.311 53.0594 105.849 54.9705 106.986C55.7342 107.444 55.7455 107.764 55.4182 108.597C53.2663 114.148 51.7226 119.866 50.7871 125.75C50.6893 126.374 50.8285 126.911 51.2047 127.361C51.285 127.459 51.3815 127.479 51.4944 127.421C53.2826 126.535 54.5215 125.286 55.2112 123.674C56.0464 121.727 57.0847 118.604 58.3262 114.304C59.2843 110.985 60.2737 107.675 61.2944 104.373C61.648 103.221 61.7835 102.019 62.013 100.814C62.0348 100.696 62.099 100.589 62.1935 100.514C63.2293 99.6805 64.3893 99.2726 65.6734 99.2901C67.2045 99.3089 67.4415 100.42 66.8472 101.618C66.4358 102.446 66.086 103.505 65.7975 104.794C65.7474 105.024 65.79 105.043 65.9255 104.85Z"
				fill="#F06224"
			/>
			<path
				d="M113.158 103.964C113.088 103.906 113.009 103.862 112.923 103.836C112.837 103.809 112.746 103.801 112.657 103.81C110.411 104.02 104.155 105.278 103.008 107.396C102.971 107.464 102.963 107.544 102.985 107.618C103.006 107.693 103.057 107.756 103.124 107.794C105.197 108.976 107.906 104.809 110.129 105.229C110.208 105.244 110.282 105.277 110.346 105.326C110.41 105.374 110.462 105.436 110.497 105.507C110.533 105.579 110.552 105.657 110.552 105.736C110.552 105.816 110.533 105.894 110.498 105.965C109.377 108.259 103.602 109.423 101.586 109.423C100.979 109.423 100.368 109.136 99.7535 108.563C99.6657 108.481 99.6193 108.379 99.6143 108.259C99.5879 107.219 101.386 106.055 102.131 105.635C104.734 104.163 113.169 100.619 115.43 103.3C116.15 104.151 116.055 105.073 115.148 106.067C112.345 109.126 105.761 111.011 101.586 111.383C101.491 111.389 101.397 111.362 101.32 111.306C101.243 111.25 101.188 111.169 101.165 111.077C101.142 110.985 101.151 110.888 101.192 110.803C101.234 110.717 101.303 110.649 101.39 110.609C102.31 110.216 103.324 109.873 104.43 109.581C107.575 108.747 110.412 107.312 112.943 105.274C113.547 104.789 113.619 104.352 113.158 103.964Z"
				fill="#F06224"
			/>
			<path
				d="M75.0333 140.82C75.2164 140.593 75.4634 140.447 75.7744 140.385C77.3369 140.064 78.8956 139.728 80.4506 139.375C90.3296 137.134 99.7384 131.765 107.247 125.022C108.253 124.119 109.969 122.154 112.394 119.128C113.564 117.671 114.911 116.455 116.731 117.078C117.248 117.253 117.341 117.557 117.01 117.99C107.389 130.53 95.0271 138.665 79.9239 142.397C78.9495 142.637 77.8473 142.773 76.8353 142.945C76.6848 142.97 76.5556 142.93 76.4478 142.825L75.0709 141.477C74.8577 141.27 74.8452 141.051 75.0333 140.82Z"
				fill="#DBE9B6"
			/>
			<path
				d="M112.525 117.315C111.906 118.203 110.871 119.398 109.422 120.9C101.87 128.729 92.7348 134.156 82.0156 137.182C79.8085 137.806 77.8122 138.18 76.0265 138.305C76.2421 137.959 76.4954 137.698 76.7864 137.52C76.9494 137.5 77.0911 137.383 77.2115 137.167C77.2717 137.055 77.3645 136.983 77.4899 136.953L80.5597 136.202C80.6826 136.172 80.8017 136.181 80.9171 136.229C81.203 136.349 81.4024 136.293 81.6732 136.116C82.2777 135.728 83.1805 135.341 84.3819 134.956C94.3612 131.74 103.004 125.964 110.31 117.63L112.525 117.315Z"
				fill="#13A751"
			/>
		</g>
		<defs>
			<clipPath id="clip0_5_5">
				<rect width="130" height="158" fill="white" />
			</clipPath>
		</defs>
	</svg>